<?xml version="1.0" encoding="UTF-8" standalone="no"?><!-- Generator: Gravit.io --><svg xmlns="http://www.w3.org/2000/svg" xmlns:xlink="http://www.w3.org/1999/xlink" style="isolation:isolate" viewBox="0 0 30 30" width="30pt" height="30pt"><defs><clipPath id="_clipPath_w4QUNWLcM2TMTjClygIyXQwVwCx9WW4g"><rect width="30" height="30"/></clipPath></defs><g clip-path="url(#_clipPath_w4QUNWLcM2TMTjClygIyXQwVwCx9WW4g)"><path d=" M 28.464 10.049 L 20.271 8.801 L 16.61 1.044 C 16.281 0.35 15.639 0 14.997 0 C 14.359 0 13.722 0.346 13.392 1.044 L 9.729 8.8 L 1.537 10.048 C 0.067 10.27 -0.521 12.162 0.544 13.246 L 6.47 19.281 L 5.068 27.806 C 4.868 29.023 5.797 30 6.837 30 C 7.113 30 7.397 29.931 7.669 29.78 L 14.998 25.756 L 22.327 29.781 C 22.599 29.931 22.882 29.999 23.157 29.999 C 24.198 29.999 25.128 29.026 24.929 27.807 L 23.528 19.283 L 29.456 13.249 C 30.522 12.165 29.933 10.272 28.464 10.049 L 28.464 10.049 Z  M 21.65 17.268 L 20.636 18.301 L 20.875 19.758 L 21.968 26.406 L 16.252 23.266 L 14.999 22.578 L 15.001 3.993 L 17.857 10.045 L 18.482 11.371 L 19.882 11.584 L 26.276 12.558 L 21.65 17.268 L 21.65 17.268 Z " fill="rgb(255,159,67)"/></g></svg>