<!-- Generated by IcoMoon.io -->
<svg version="1.1" xmlns="http://www.w3.org/2000/svg" width="12" height="32" viewBox="0 0 12 32">
<title>angle-left</title>
<path d="M11.196 10c0 0.143-0.071 0.304-0.179 0.411l-7.018 7.018 7.018 7.018c0.107 0.107 0.179 0.268 0.179 0.411s-0.071 0.304-0.179 0.411l-0.893 0.893c-0.107 0.107-0.268 0.179-0.411 0.179s-0.304-0.071-0.411-0.179l-8.321-8.321c-0.107-0.107-0.179-0.268-0.179-0.411s0.071-0.304 0.179-0.411l8.321-8.321c0.107-0.107 0.268-0.179 0.411-0.179s0.304 0.071 0.411 0.179l0.893 0.893c0.107 0.107 0.179 0.25 0.179 0.411z"></path>
</svg>
