<!-- Generated by IcoMoon.io -->
<svg version="1.1" xmlns="http://www.w3.org/2000/svg" width="11" height="32" viewBox="0 0 11 32">
<title>angle-right</title>
<path d="M10.625 17.429c0 0.143-0.071 0.304-0.179 0.411l-8.321 8.321c-0.107 0.107-0.268 0.179-0.411 0.179s-0.304-0.071-0.411-0.179l-0.893-0.893c-0.107-0.107-0.179-0.25-0.179-0.411 0-0.143 0.071-0.304 0.179-0.411l7.018-7.018-7.018-7.018c-0.107-0.107-0.179-0.268-0.179-0.411s0.071-0.304 0.179-0.411l0.893-0.893c0.107-0.107 0.268-0.179 0.411-0.179s0.304 0.071 0.411 0.179l8.321 8.321c0.107 0.107 0.179 0.268 0.179 0.411z"></path>
</svg>
