<!-- Generated by IcoMoon.io -->
<svg version="1.1" xmlns="http://www.w3.org/2000/svg" width="26" height="32" viewBox="0 0 26 32">
<title>moon-o</title>
<path d="M22.536 23.554c-0.643 0.107-1.304 0.161-1.964 0.161-6.625 0-12-5.375-12-12 0-2.268 0.661-4.482 1.857-6.375-4.75 1.411-8.143 5.768-8.143 10.946 0 6.304 5.125 11.429 11.429 11.429 3.446 0 6.679-1.571 8.821-4.161zM26.161 22.036c-2.232 4.839-7.125 7.964-12.446 7.964-7.554 0-13.714-6.161-13.714-13.714 0-7.411 5.804-13.429 13.196-13.696 0.5-0.018 0.911 0.268 1.089 0.696 0.196 0.446 0.071 0.964-0.268 1.286-2.036 1.857-3.161 4.393-3.161 7.143 0 5.357 4.357 9.714 9.714 9.714 1.411 0 2.768-0.304 4.071-0.911 0.446-0.196 0.946-0.107 1.286 0.232s0.429 0.857 0.232 1.286z"></path>
</svg>
