<!-- Generated by IcoMoon.io -->
<svg version="1.1" xmlns="http://www.w3.org/2000/svg" width="32" height="32" viewBox="0 0 32 32">
<title>sun-o</title>
<path d="M26.286 16.286c0-5.679-4.607-10.286-10.286-10.286s-10.286 4.607-10.286 10.286 4.607 10.286 10.286 10.286 10.286-4.607 10.286-10.286zM31.214 21.232c-0.054 0.179-0.196 0.304-0.357 0.357l-5.214 1.714v5.464c0 0.179-0.089 0.357-0.232 0.464-0.161 0.107-0.339 0.143-0.518 0.071l-5.214-1.679-3.214 4.429c-0.107 0.143-0.286 0.232-0.464 0.232s-0.357-0.089-0.464-0.232l-3.214-4.429-5.214 1.679c-0.179 0.071-0.357 0.036-0.518-0.071-0.143-0.107-0.232-0.286-0.232-0.464v-5.464l-5.214-1.714c-0.161-0.054-0.304-0.179-0.357-0.357s-0.036-0.375 0.071-0.518l3.214-4.429-3.214-4.429c-0.107-0.161-0.125-0.339-0.071-0.518s0.196-0.304 0.357-0.357l5.214-1.714v-5.464c0-0.179 0.089-0.357 0.232-0.464 0.161-0.107 0.339-0.143 0.518-0.071l5.214 1.679 3.214-4.429c0.214-0.286 0.714-0.286 0.929 0l3.214 4.429 5.214-1.679c0.179-0.071 0.357-0.036 0.518 0.071 0.143 0.107 0.232 0.286 0.232 0.464v5.464l5.214 1.714c0.161 0.054 0.304 0.179 0.357 0.357s0.036 0.357-0.071 0.518l-3.214 4.429 3.214 4.429c0.107 0.143 0.125 0.339 0.071 0.518z"></path>
</svg>
